<?xml version="1.0" standalone="no"?>
<!DOCTYPE svg PUBLIC "-//W3C//DTD SVG 20010904//EN"
 "http://www.w3.org/TR/2001/REC-SVG-20010904/DTD/svg10.dtd">
<svg version="1.0" xmlns="http://www.w3.org/2000/svg"
 width="640.000000pt" height="640.000000pt" viewBox="0 0 640.000000 640.000000"
 preserveAspectRatio="xMidYMid meet">
<metadata>
Created by potrace 1.14, written by Peter Selinger 2001-2017
</metadata>
<g transform="translate(0.000000,640.000000) scale(0.100000,-0.100000)"
fill="#000000" stroke="none">
<path d="M2244 6035 c12 -48 53 -108 126 -186 38 -41 69 -76 70 -79 0 -3 -20
-16 -45 -30 l-45 -24 -97 32 c-54 17 -123 38 -153 46 -30 8 -73 21 -95 30 -68
26 -217 64 -275 70 -65 7 -58 4 135 -50 72 -20 144 -42 160 -49 17 -8 66 -28
110 -45 80 -31 145 -68 145 -83 0 -4 -17 -22 -37 -40 -77 -65 -143 -130 -143
-139 0 -6 19 8 43 31 23 22 58 51 77 65 19 14 40 29 45 34 46 37 148 102 183
115 23 10 65 17 92 17 28 0 50 4 50 9 0 11 -35 21 -73 21 -56 0 -107 42 -193
160 -43 58 -59 90 -45 90 5 0 30 -4 57 -9 27 -5 103 -14 169 -21 152 -14 206
-24 330 -62 103 -31 246 -97 320 -148 31 -21 42 -25 42 -14 0 18 -99 90 -175
128 -145 73 -287 109 -507 130 -88 8 -187 18 -219 22 l-59 7 7 -28z"/>
<path d="M3413 5962 c-104 -105 -203 -214 -203 -224 0 -13 17 -9 29 5 6 8 8
17 4 21 -4 4 0 4 10 0 13 -4 17 -1 17 15 0 12 4 21 9 21 5 0 25 22 45 49 34
48 165 161 187 161 8 0 88 -322 93 -380 6 -61 -23 -110 -133 -217 -75 -74
-155 -132 -166 -121 -10 10 -67 185 -79 244 -18 85 -25 104 -39 104 -30 0 31
-267 81 -352 21 -37 56 -36 113 1 34 22 56 29 98 30 70 1 171 21 171 33 0 6
-34 9 -85 7 -47 -2 -85 -2 -85 1 0 3 13 19 28 35 44 48 88 107 107 144 14 29
16 49 11 118 l-7 83 33 -1 c18 0 70 -4 116 -7 81 -7 115 -2 98 15 -4 4 -62 9
-129 10 l-121 1 -32 126 c-36 137 -48 166 -69 166 -7 0 -53 -40 -102 -88z"/>
<path d="M1670 5857 c0 -14 -4 -36 -9 -49 -8 -22 -24 -263 -16 -243 8 19 36
307 30 313 -3 3 -5 -6 -5 -21z"/>
<path d="M3865 5689 c-4 -12 -36 -71 -71 -131 -64 -110 -81 -148 -68 -148 14
0 60 60 99 129 28 50 49 74 70 83 32 14 468 17 696 5 74 -4 102 -3 79 3 -67
17 -227 29 -440 35 -203 5 -313 17 -334 37 -16 13 -24 9 -31 -13z"/>
<path d="M3276 5590 c26 -23 49 -37 60 -35 11 2 47 9 82 16 34 6 65 16 68 20
7 12 -9 11 -83 -5 -60 -13 -62 -13 -107 15 -63 39 -69 36 -20 -11z"/>
<path d="M4843 5520 c0 -25 2 -35 4 -22 2 12 2 32 0 45 -2 12 -4 2 -4 -23z"/>
<path d="M2059 5454 c-22 -25 -22 -26 -3 -16 12 6 24 18 28 27 8 21 3 19 -25
-11z"/>
<path d="M4827 5460 c-5 -15 -47 -220 -51 -252 -1 -10 -5 -21 -9 -24 -4 -4 -7
-16 -7 -27 0 -11 -7 -43 -15 -71 -8 -28 -24 -85 -36 -126 -11 -41 -36 -110
-55 -153 -19 -43 -32 -83 -29 -88 4 -5 2 -9 -3 -9 -9 0 -35 -42 -86 -135 -14
-26 -49 -78 -56 -85 -3 -3 -25 -32 -50 -65 -58 -78 -203 -225 -222 -225 -9 0
-31 36 -57 93 -60 128 -75 158 -83 163 -19 12 76 -214 164 -391 107 -214 209
-342 342 -431 121 -80 389 -119 508 -74 69 26 71 26 63 -12 -15 -67 -72 -141
-155 -201 l-25 -18 25 4 c14 2 30 6 35 8 19 6 173 -52 179 -68 10 -24 -38 -89
-86 -119 -85 -54 -142 -68 -295 -72 -79 -2 -143 -7 -143 -11 0 -4 8 -7 18 -8
192 -18 256 -13 364 27 114 43 207 161 164 209 -9 10 -47 26 -84 36 -37 10
-71 22 -77 26 -5 6 5 24 27 47 60 62 99 165 74 196 -10 13 -19 12 -69 -10 -47
-20 -74 -24 -150 -25 -92 0 -206 20 -232 41 -9 8 -15 8 -20 0 -9 -14 -110 41
-163 88 -90 82 -179 199 -254 335 -43 79 -46 95 -19 126 24 28 70 41 145 41
73 0 65 -10 -33 -40 l-75 -24 62 -27 c200 -90 293 -211 340 -439 l10 -45 1 60
c2 144 -80 288 -216 378 -38 24 -85 50 -106 57 -21 6 -36 14 -34 17 3 2 31 11
64 18 88 22 271 19 371 -5 94 -23 110 -24 96 -11 -28 28 -126 54 -234 63 -204
17 -301 20 -330 10 -36 -13 -42 -7 -19 21 10 12 37 45 59 72 87 105 97 113
178 138 104 33 209 47 355 47 261 0 472 -84 694 -277 280 -243 424 -490 453
-779 14 -132 5 -303 -19 -366 -5 -14 -8 -28 -5 -30 2 -3 -3 -21 -11 -41 -8
-20 -16 -40 -16 -44 -1 -5 -6 -19 -11 -32 -16 -45 -2 -45 19 0 26 57 55 182
46 205 -4 11 -3 15 4 11 17 -10 22 45 19 198 -5 236 -56 404 -176 590 -78 120
-157 208 -285 321 -130 113 -219 168 -360 221 -114 43 -201 58 -350 58 -150 0
-242 -16 -339 -56 -37 -16 -72 -29 -77 -29 -4 0 21 43 56 95 36 53 65 100 65
105 0 6 11 27 25 48 67 101 155 391 201 658 15 87 16 151 1 114z"/>
<path d="M1651 5424 c0 -11 3 -14 6 -6 3 7 2 16 -1 19 -3 4 -6 -2 -5 -13z"/>
<path d="M2520 5224 c-30 -8 -73 -20 -95 -28 -104 -37 -215 -45 -303 -22 -29
7 -52 10 -52 6 0 -13 125 -35 195 -34 78 2 183 25 246 55 22 11 43 18 45 16 3
-2 -4 -26 -14 -53 -25 -65 -34 -112 -21 -119 5 -4 29 2 52 12 23 11 69 25 102
32 70 16 112 35 136 65 24 29 17 31 -29 7 -41 -21 -219 -71 -226 -64 -4 5 17
98 29 126 8 20 7 20 -65 1z"/>
<path d="M4360 5219 c-99 -35 -254 -78 -300 -83 -75 -9 -102 -28 -33 -23 73 6
86 -6 45 -40 -19 -15 -50 -33 -70 -39 -57 -17 -52 -34 11 -34 57 0 107 -26
107 -55 0 -27 -47 -48 -94 -43 l-43 5 11 -30 c14 -39 79 -111 94 -106 8 3 -3
21 -28 49 -22 24 -40 48 -40 52 0 4 13 8 29 8 38 0 81 35 81 66 0 25 -34 67
-61 76 -10 3 -5 13 19 37 22 23 31 39 27 52 -5 15 3 21 52 34 102 29 187 56
218 70 33 15 15 18 -25 4z"/>
<path d="M2027 5199 c7 -7 15 -10 18 -7 3 3 -2 9 -12 12 -14 6 -15 5 -6 -5z"/>
<path d="M1980 5190 c-8 -5 -12 -12 -9 -15 4 -3 12 1 19 10 14 17 11 19 -10 5z"/>
<path d="M4300 5026 c-25 -50 -66 -119 -92 -154 -27 -35 -48 -65 -48 -67 0
-15 58 50 94 105 41 62 103 196 95 204 -2 2 -24 -38 -49 -88z"/>
<path d="M1879 4993 c-5 -16 -17 -48 -25 -73 -9 -25 -20 -54 -24 -65 -5 -11
-11 -32 -14 -47 -10 -45 -22 -32 -45 50 -25 88 -46 138 -34 82 5 -19 8 -69 8
-112 0 -70 -3 -83 -43 -159 -68 -131 -201 -320 -304 -433 -40 -44 -72 -83 -71
-87 1 -3 -3 -6 -10 -5 -7 0 -30 -13 -52 -31 -22 -18 -51 -41 -65 -52 -35 -27
-3 -21 42 9 21 14 38 31 38 38 0 7 5 10 10 7 6 -3 10 -1 10 4 0 6 6 11 13 11
20 0 121 101 192 191 36 46 69 89 75 96 5 6 25 35 44 65 66 101 141 201 154
206 11 3 12 -16 7 -99 -4 -59 -2 -152 4 -214 26 -261 -67 -477 -269 -621 -75
-54 -102 -67 -195 -99 -139 -47 -239 -48 -335 -3 -103 50 -187 140 -142 154
40 13 86 37 76 41 -6 2 -35 -3 -65 -10 -66 -17 -72 -36 -29 -95 62 -85 206
-148 325 -140 158 11 374 115 486 234 72 77 136 165 149 208 11 35 14 38 25
23 12 -16 13 -16 17 0 2 10 -3 121 -11 246 -12 186 -13 251 -3 347 10 100 49
271 77 343 4 9 4 17 1 17 -4 0 -11 -12 -17 -27z"/>
<path d="M2028 4457 c-16 -6 -28 -17 -28 -23 0 -7 -6 -17 -12 -21 -7 -4 -21
-23 -31 -40 -81 -146 -75 -330 13 -393 41 -29 51 -24 12 6 -37 30 -62 81 -62
130 0 26 4 32 15 28 8 -4 15 -1 15 5 0 6 14 18 30 26 28 15 31 14 36 -2 3 -10
13 -34 22 -53 30 -62 102 -48 120 24 10 38 18 38 61 5 38 -30 44 -75 17 -127
-23 -44 -60 -66 -126 -74 l-55 -6 63 2 c53 2 66 6 93 32 51 49 62 86 62 214 0
97 -3 121 -20 155 -52 99 -143 145 -225 112z m56 -53 c37 -37 3 -104 -53 -104
-58 0 -81 60 -39 100 26 24 70 26 92 4z m46 -89 c0 -8 -4 -15 -9 -15 -13 0
-22 16 -14 24 11 11 23 6 23 -9z"/>
<path d="M3085 4432 c-85 -21 -94 -24 -73 -29 14 -3 11 -12 -17 -55 -19 -28
-39 -73 -47 -102 -28 -109 -7 -287 42 -349 30 -37 108 -60 187 -54 78 5 124
38 163 113 23 44 25 60 24 164 0 132 -18 187 -82 253 -65 67 -108 80 -197 59z
m37 -59 c24 -21 23 -68 -2 -93 -41 -41 -100 -13 -100 46 0 55 62 83 102 47z
m68 -88 c0 -8 -4 -15 -10 -15 -5 0 -10 7 -10 15 0 8 5 15 10 15 6 0 10 -7 10
-15z m-104 -207 c26 -51 55 -78 85 -78 23 0 31 8 53 52 25 51 28 52 69 53 23
0 45 -4 49 -10 24 -32 -8 -150 -51 -189 -27 -24 -115 -56 -155 -56 -101 0
-175 83 -176 197 0 57 4 61 67 62 38 1 44 -2 59 -31z"/>
<path d="M1158 4023 c7 -3 16 -2 19 1 4 3 -2 6 -13 5 -11 0 -14 -3 -6 -6z"/>
<path d="M1062 3979 c-29 -15 -77 -31 -107 -34 -30 -4 -56 -13 -59 -21 -6 -16
54 -65 107 -87 54 -23 45 -7 -18 31 -57 34 -63 52 -19 52 21 0 131 50 174 79
33 23 -26 8 -78 -20z"/>
<path d="M1824 3861 c12 -122 123 -277 232 -322 l53 -22 -27 -15 c-70 -38
-139 -70 -162 -75 -14 -3 -34 -13 -45 -22 -12 -9 7 -5 50 11 39 14 79 29 90
32 11 3 57 20 101 38 l82 34 73 -26 c41 -14 105 -37 143 -50 85 -30 136 -53
158 -72 16 -13 16 -16 0 -50 -20 -44 -37 -59 -77 -68 -16 -3 -64 -24 -106 -44
-110 -56 -173 -70 -230 -54 -63 19 -169 75 -266 141 -46 31 -85 54 -87 52 -3
-3 34 -35 82 -71 109 -83 268 -166 325 -170 l42 -3 -67 -36 -67 -36 -22 20
c-39 37 -276 211 -333 246 -31 18 -73 39 -93 47 -84 30 -178 6 -227 -58 -23
-31 -26 -43 -24 -109 l1 -74 6 77 c7 87 26 117 96 149 36 16 47 17 101 5 38
-7 86 -28 127 -54 77 -47 336 -238 354 -259 17 -21 124 24 243 102 136 89 166
106 173 98 4 -3 4 -23 1 -45 -12 -72 12 -38 46 65 19 56 49 133 67 171 36 76
36 76 26 76 -5 0 -18 -16 -31 -35 -12 -19 -30 -35 -39 -35 -9 0 -91 25 -181
56 -123 42 -180 57 -231 59 -85 3 -135 28 -211 104 -61 60 -89 107 -127 211
l-24 65 5 -54z"/>
<path d="M3905 3827 c-63 -75 -90 -104 -108 -114 -14 -8 -66 -12 -137 -13 -63
0 -153 -5 -200 -11 -147 -18 -273 -40 -289 -49 -22 -13 -7 -12 114 5 55 8 196
18 314 22 238 7 228 11 169 -59 -13 -16 -39 -49 -58 -74 -46 -62 -170 -203
-206 -234 -64 -57 -56 -55 -290 -53 -223 1 -283 5 -329 23 -14 5 -31 9 -37 7
-10 -2 -58 58 -58 73 0 9 136 122 234 195 44 32 74 61 68 63 -14 4 -88 -44
-188 -125 -107 -85 -137 -92 -185 -38 -40 44 -49 38 -18 -12 37 -59 76 -131
121 -221 l41 -83 -13 -57 c-17 -79 -86 -289 -102 -311 -12 -17 -19 -10 -78 77
-36 52 -67 100 -69 106 -2 6 -12 23 -22 38 -11 14 -19 33 -19 42 0 9 -3 16 -8
16 -4 0 -13 14 -20 30 -18 39 -33 39 -22 -1 24 -84 154 -295 210 -343 l35 -29
19 44 c42 96 106 293 112 344 6 46 3 61 -20 104 -14 28 -22 52 -17 55 4 3 35
1 67 -4 32 -6 97 -14 144 -19 112 -13 207 -53 329 -139 53 -38 128 -87 166
-109 109 -63 356 -186 362 -179 3 3 12 -1 20 -9 8 -8 19 -15 25 -15 6 0 -1 9
-15 20 -14 11 -27 20 -30 20 -6 0 -408 224 -457 255 -93 59 -202 145 -189 149
8 2 49 7 92 10 43 3 90 12 105 20 31 16 119 107 232 242 96 113 120 146 157
214 17 30 40 72 52 93 11 21 21 40 21 42 0 9 -15 4 -25 -8z"/>
<path d="M4021 3804 c-2 -18 37 -187 52 -229 47 -131 152 -295 189 -295 6 0 1
8 -10 19 -12 10 -22 23 -22 30 0 6 -4 11 -8 11 -11 0 -104 197 -132 280 -12
36 -27 74 -33 85 -5 11 -16 40 -23 65 -7 25 -13 40 -13 34z"/>
<path d="M2640 3571 c-13 -25 -13 -24 9 -49 21 -25 74 -29 116 -10 24 11 35
38 15 38 -5 0 -10 -7 -10 -15 0 -10 -11 -15 -35 -15 -30 0 -37 4 -49 35 -17
39 -30 44 -46 16z"/>
<path d="M3151 3504 c0 -11 3 -14 6 -6 3 7 2 16 -1 19 -3 4 -6 -2 -5 -13z"/>
<path d="M1576 3234 c-35 -35 -8 -104 42 -104 32 0 37 19 12 45 -12 13 -23 35
-24 49 -1 30 -8 32 -30 10z"/>
<path d="M1435 3068 c10 -61 76 -166 162 -258 129 -137 246 -203 417 -235 74
-14 101 -15 179 -5 85 11 92 11 105 -6 20 -27 10 -118 -20 -185 -58 -126 -233
-608 -253 -695 -9 -38 -21 -77 -26 -86 -5 -10 -9 -23 -9 -30 0 -22 18 6 33 52
24 70 70 192 131 347 95 242 162 457 180 582 9 63 22 127 30 142 12 23 12 27
0 22 -8 -3 -14 -3 -14 0 0 21 32 160 44 196 25 67 18 73 -10 8 -14 -32 -31
-100 -38 -152 -11 -78 -17 -98 -37 -114 -51 -43 -89 -54 -184 -53 -159 2 -319
66 -454 182 -66 57 -166 182 -209 263 -31 57 -33 59 -27 25z"/>
<path d="M4588 3093 c7 -3 16 -2 19 1 4 3 -2 6 -13 5 -11 0 -14 -3 -6 -6z"/>
<path d="M4649 2970 c-14 -44 -25 -80 -23 -80 9 0 43 84 49 120 4 22 5 40 3
40 -1 0 -15 -36 -29 -80z"/>
<path d="M4611 2854 c0 -11 3 -14 6 -6 3 7 2 16 -1 19 -3 4 -6 -2 -5 -13z"/>
<path d="M5961 2854 c0 -11 3 -14 6 -6 3 7 2 16 -1 19 -3 4 -6 -2 -5 -13z"/>
<path d="M5920 2778 c-13 -35 -28 -69 -33 -75 -6 -8 -6 -13 0 -13 11 0 54 91
60 128 6 36 -1 26 -27 -40z"/>
<path d="M4586 2803 c-4 -18 -11 -33 -15 -33 -8 0 -42 -72 -37 -77 2 -2 11 11
21 29 9 18 23 46 32 61 8 15 13 33 10 40 -2 7 -7 -3 -11 -20z"/>
<path d="M4497 2650 c-9 -11 -17 -24 -17 -28 0 -5 -16 -26 -35 -47 l-36 -38
-29 31 c-16 18 -34 32 -39 32 -6 0 -3 -9 7 -19 39 -44 44 -54 46 -94 1 -23 -4
-53 -11 -67 -7 -14 -13 -30 -13 -36 0 -21 -81 -55 -172 -73 -88 -17 -157 -19
-240 -6 -23 3 -38 1 -38 -5 0 -5 15 -11 33 -12 50 -2 55 -3 63 -11 4 -4 20 -7
36 -7 15 0 28 -4 28 -9 0 -11 -191 -138 -235 -157 -39 -16 -106 -10 -142 12
-13 8 -37 31 -55 51 -18 20 -38 41 -43 47 -6 6 -19 22 -29 36 -26 35 -20 22
60 -140 112 -227 128 -280 128 -430 0 -138 -10 -189 -82 -402 -39 -113 -91
-229 -214 -473 -78 -154 -114 -209 -178 -273 -123 -124 -257 -182 -423 -182
-92 0 -139 14 -151 46 -3 9 -13 14 -21 10 -19 -7 -55 39 -55 71 0 13 12 50 26
81 14 31 33 75 42 97 8 22 19 44 24 49 4 6 8 19 8 30 0 12 -10 0 -24 -30 -13
-27 -40 -82 -60 -123 -20 -40 -36 -88 -36 -106 0 -34 32 -85 54 -85 7 0 23
-11 36 -25 35 -37 84 -50 192 -48 134 2 229 38 353 136 119 94 178 187 320
512 29 66 66 147 83 180 39 77 99 258 121 360 19 91 31 100 80 59 57 -48 249
-110 386 -124 50 -5 179 -10 287 -10 187 0 331 -16 348 -38 3 -4 17 -15 33
-25 15 -10 39 -37 55 -60 26 -41 27 -45 27 -197 0 -149 -1 -157 -28 -214 -36
-77 -92 -145 -133 -162 -18 -8 -36 -19 -40 -25 -8 -14 65 -5 140 17 27 8 51
12 54 10 9 -10 -86 -119 -146 -168 -78 -63 -201 -126 -263 -134 -50 -7 -77
-19 -67 -29 4 -4 184 -7 400 -8 l393 -1 117 31 c217 58 429 177 578 323 171
168 318 463 350 705 46 352 -189 777 -505 913 -17 8 38 -42 70 -62 17 -11 32
-20 35 -20 2 -1 41 -38 85 -84 145 -148 248 -353 276 -548 39 -278 -96 -627
-336 -869 -133 -135 -281 -228 -465 -295 -137 -51 -222 -60 -529 -60 l-276 1
65 37 c89 51 201 162 236 236 15 32 49 80 76 107 27 28 48 57 48 70 0 18 -7
15 -57 -29 -56 -47 -130 -92 -153 -92 -7 0 7 19 30 42 62 63 85 148 85 308 -1
173 -33 271 -123 384 -36 45 -117 116 -131 116 -3 0 23 -31 59 -69 64 -67 98
-116 89 -126 -3 -2 -30 5 -60 17 -49 19 -83 22 -364 29 -170 5 -323 11 -340
14 -16 4 -73 21 -125 38 -84 27 -101 36 -146 83 -63 64 -90 120 -99 202 -4 34
-5 62 -3 62 2 0 48 16 103 35 55 19 246 108 425 198 406 204 615 292 745 312
22 4 64 15 93 26 29 10 65 20 80 20 17 1 21 3 9 6 -27 7 -274 -44 -352 -73
-38 -14 -92 -33 -120 -42 -27 -9 -223 -102 -435 -208 -212 -105 -402 -197
-424 -204 -72 -23 -176 6 -176 48 0 24 38 58 125 113 75 47 201 136 223 157 7
6 19 12 25 12 119 2 187 9 214 23 68 36 113 133 94 201 -7 29 -5 37 20 67 37
44 41 49 62 82 22 34 18 45 -6 17z"/>
<path d="M5855 2629 c-4 -6 -5 -12 -2 -15 2 -3 7 2 10 11 7 17 1 20 -8 4z"/>
<path d="M4290 2610 c20 -13 33 -13 25 0 -3 6 -14 10 -23 10 -15 0 -15 -2 -2
-10z"/>
<path d="M3290 2541 c19 -16 67 -49 106 -73 55 -33 77 -53 95 -88 15 -28 25
-38 27 -28 2 9 9 15 15 12 8 -3 13 5 15 19 1 17 -6 27 -26 36 -15 7 -77 44
-138 82 -120 74 -149 87 -94 40z"/>
<path d="M5776 2497 c3 -10 9 -15 12 -12 3 3 0 11 -7 18 -10 9 -11 8 -5 -6z"/>
<path d="M2550 2455 c0 -12 20 -35 31 -35 4 0 9 7 12 14 4 10 1 13 -10 9 -8
-3 -19 0 -24 8 -5 8 -9 9 -9 4z"/>
<path d="M5338 2453 c7 -3 16 -2 19 1 4 3 -2 6 -13 5 -11 0 -14 -3 -6 -6z"/>
<path d="M5771 2444 c0 -11 3 -14 6 -6 3 7 2 16 -1 19 -3 4 -6 -2 -5 -13z"/>
<path d="M2685 2430 c28 -12 37 -12 30 0 -3 6 -16 10 -28 9 -21 0 -21 -1 -2
-9z"/>
<path d="M3568 2383 c7 -3 16 -2 19 1 4 3 -2 6 -13 5 -11 0 -14 -3 -6 -6z"/>
<path d="M3678 2343 c7 -3 16 -2 19 1 4 3 -2 6 -13 5 -11 0 -14 -3 -6 -6z"/>
<path d="M3863 2303 c9 -2 23 -2 30 0 6 3 -1 5 -18 5 -16 0 -22 -2 -12 -5z"/>
<path d="M2914 1398 l-9 -43 -43 3 c-28 3 -42 0 -42 -9 0 -8 -15 -10 -57 -5
-41 4 -53 3 -41 -4 21 -13 87 -16 109 -6 10 4 25 0 39 -12 23 -19 23 -21 12
-78 -27 -125 -46 -202 -69 -269 -27 -77 -63 -208 -58 -213 8 -8 34 69 28 84
-5 13 -3 15 7 9 10 -6 12 -4 7 8 -3 10 -3 17 1 17 4 0 14 21 21 48 8 26 27 87
43 136 27 86 49 198 64 319 7 67 1 75 -12 15z"/>
<path d="M2527 1389 c10 -21 13 -43 9 -67 -4 -21 -8 -44 -10 -52 -1 -8 -8 -28
-14 -43 -7 -16 -12 -36 -11 -45 0 -9 5 -3 11 13 15 47 32 79 45 88 7 4 13 14
13 21 0 8 16 21 36 31 l37 17 -64 34 c-35 19 -64 34 -65 34 -1 0 4 -14 13 -31z"/>
<path d="M1921 684 c0 -11 3 -14 6 -6 3 7 2 16 -1 19 -3 4 -6 -2 -5 -13z"/>
<path d="M1940 624 c0 -6 13 -29 29 -52 25 -34 39 -42 83 -52 29 -7 64 -10 78
-8 17 2 4 8 -39 16 -74 13 -104 31 -131 75 -11 18 -20 27 -20 21z"/>
<path d="M2210 530 c0 -5 5 -10 10 -10 6 0 10 5 10 10 0 6 -4 10 -10 10 -5 0
-10 -4 -10 -10z"/>
<path d="M2285 530 c-3 -6 1 -7 9 -4 18 7 21 14 7 14 -6 0 -13 -4 -16 -10z"/>
</g>
</svg>
